:SAMPLES-PER-SECOND 30
:FULLY-SPECIFIED
:DEGREES
110
root  6.80782213 39.87911254 5.935933271 -33.77301025 -73.5510025 35.30297852
lowerback  14.51710033 6.015679836 -1.98842001
upperback  3.978709936 7.454780102 -0.948028028
thorax  -3.992419958 3.629909992 -1.198930025
lowerneck  -7.229750156 11.70269966 1.378170013
upperneck  12.90639973 16.23410034 -4.378379822
head  5.560039997 7.689909935 -0.4043729901
lclavicle  0 -9.442270133e-015 7.951389973e-016
lhumerus  -40.49309921 -17.14699936 62.56639862
lradius  2.912324721e-031 -1.996799629e-031 145.5639954
lwrist  -7.062250077e-031 -0 -0.3099899888
lhand  -1.496451383e-031 -27.76390076 20.11240005
lfingers  90 7.125020027 -90
lthumb  89.89689403 5.08795885 91.16245106
rclavicle  0 -9.442270133e-015 7.951389973e-016
rhumerus  -5.472869873 27.92639923 -77.07569885
rradius  -2.304929287e-031 2.675097198e-031 130.7489929
rwrist  0 -0 -11.20400047
rhand  -7.920061211e-032 -33.2840004 9.303460121
rfingers  -90 -7.125020027 -90
rthumb  -92.93752616 -24.25625642 -97.11982154
rfemur  -21.62989998 20.75909996 -7.989679813
rtibia  -0 0 52.37990189
rfoot  -0 -13.29640007 -6.670629978
rtoes  5.373923086 19.29304026 -105.8922705
lfemur  -16.55579948 2.590039968 -6.945869923
ltibia  -0 0 48.67010117
lfoot  -0 -3.204149961 10.59589958
ltoes  -4.250644065 -19.5611806 -102.515957
111
root  6.796177541 39.64577923 6.050066685 -34.36199951 -74.1230011 35.70898438
lowerback  14.42000008 5.948589802 -2.219180107
upperback  3.964289904 7.330210209 -1.034319997
thorax  -3.972470045 3.568860054 -1.130990028
lowerneck  -7.317230225 11.90410042 1.604689956
upperneck  12.49209976 16.51569939 -4.786489964
head  5.507730007 7.82062006 -0.5392109752
lclavicle  0 -9.442270133e-015 7.951389973e-016
lhumerus  -40.52059937 -16.52280045 57.60829926
lradius  2.88654145e-031 -2.033893433e-031 144.8309937
lwrist  -7.062250077e-031 -3.531125038e-031 -0.4741599858
lhand  -1.496451383e-031 -27.76390076 20.11240005
lfingers  90 7.125020027 -90
lthumb  89.89689403 5.08795885 91.16245106
rclavicle  0 -9.442270133e-015 7.951389973e-016
rhumerus  -6.933959961 27.6916008 -76.94059753
rradius  -2.295905521e-031 2.682845854e-031 130.5559998
rwrist  1.412450015e-030 -0 -11.98799992
rhand  -7.920061211e-032 -33.2840004 9.303460121
rfingers  -90 -7.125020027 -90
rthumb  -92.93752616 -24.25625642 -97.11982154
rfemur  -21.5102005 22.12680054 -7.82366991
rtibia  -0 0 52.85490036
rfoot  -0 -12.91259956 -10.43470001
rtoes  5.373923086 19.29304026 -105.8922705
lfemur  -15.66639996 2.580579996 -6.063849926
ltibia  -0 0 48.07189941
lfoot  -0 -3.001940012 10.65769958
ltoes  -4.250644065 -19.5611806 -102.515957
112
root  6.785377743 39.39088836 6.154889009 -34.58898926 -74.57499695 35.69897461
lowerback  14.36149979 5.838069916 -2.482310057
upperback  3.937880039 7.144499779 -1.086369991
thorax  -3.993330002 3.477639914 -1.004040003
lowerneck  -7.294539928 12.10830021 1.779289961
upperneck  11.88409996 16.80480003 -5.28579998
head  5.38256979 7.956059933 -0.7059599757
lclavicle  0 -9.442270133e-015 7.951389973e-016
lhumerus  -40.02740097 -15.69019985 52.28639984
lradius  2.845395776e-031 -2.091068367e-031 143.6880035
lwrist  -7.062250077e-031 -3.531125038e-031 0.7280830145
lhand  -1.496451383e-031 -27.76390076 20.11240005
lfingers  90 7.125020027 -90
lthumb  89.89689403 5.08795885 91.16245106
rclavicle  0 -9.442270133e-015 7.951389973e-016
rhumerus  -8.434519768 27.46190071 -76.79270172
rradius  -2.287888073e-031 2.689686265e-031 130.3849945
rwrist  1.412450015e-030 1.765562519e-031 -12.98750019
rhand  -7.920061211e-032 -33.2840004 9.303460121
rfingers  -90 -7.125020027 -90
rthumb  -92.93752616 -24.25625642 -97.11982154
rfemur  -21.28930092 23.56879997 -7.60326004
rtibia  -0 0 53.37239838
rfoot  -0 -14.73740005 -9.88035965
rtoes  5.373923086 19.29304026 -105.8922705
lfemur  -14.82549953 2.50883007 -5.154280186
ltibia  -0 0 47.58909988
lfoot  -0 -2.795919895 10.52779961
ltoes  -4.250644065 -19.5611806 -102.515957
113
root  6.787266318 39.13355549 6.261644589 -34.0300293 -74.88999939 34.95300293
lowerback  14.32349968 5.703179836 -2.621900082
upperback  3.831909895 6.947350025 -1.117759943
thorax  -4.095719814 3.382149935 -0.9280560017
lowerneck  -7.167250156 12.27579975 1.920549989
upperneck  11.24250031 17.04850006 -5.844769955
head  5.232830048 8.068810463 -0.896510005
lclavicle  0 -9.442270133e-015 7.951389973e-016
lhumerus  -38.82389832 -14.89109993 46.92589951
lradius  2.780818026e-031 -2.176211191e-031 141.9539948
lwrist  -3.531125038e-031 -1.765562519e-031 3.79279995
lhand  -1.496451383e-031 -27.76390076 20.11240005
lfingers  90 7.125020027 -90
lthumb  89.89689403 5.08795885 91.16245106
rclavicle  0 -9.442270133e-015 7.951389973e-016
rhumerus  -10.12419987 27.18740082 -76.68659973
rradius  -2.27688446e-031 2.699007446e-031 130.151001
rwrist  7.062250077e-031 -0 -13.76130009
rhand  -7.920061211e-032 -33.2840004 9.303460121
rfingers  -90 -7.125020027 -90
rthumb  -92.93752616 -24.25625642 -97.11982154
rfemur  -21.12899971 24.9211998 -7.316740036
rtibia  -0 0 53.88259888
rfoot  -0 -16.98480034 -8.772179604
rtoes  5.373923086 19.29304026 -105.8922705
lfemur  -14.21479988 2.389980078 -4.172629833
ltibia  -0 0 47.25170135
lfoot  -0 -2.600689888 10.10229969
ltoes  -4.250644065 -19.5611806 -102.515957
114
root  6.799155708 38.87755627 6.369066614 -32.69299316 -75.05899811 33.4039917
lowerback  14.35400009 5.530499935 -2.744179964
upperback  3.675410032 6.705609798 -1.065539956
thorax  -4.295300007 3.265919924 -0.7763689756
lowerneck  -7.070149899 12.49250031 1.965049982
upperneck  10.73530006 17.36849976 -6.357069969
head  5.122940063 8.21378994 -1.046919942
lclavicle  0 -9.442270133e-015 7.951389973e-016
lhumerus  -36.92250061 -13.91009998 41.68849945
lradius  2.686049e-031 -2.292157239e-031 139.5240021
lwrist  -1.412450015e-030 -1.765562519e-031 8.106030464
lhand  -1.496451383e-031 -27.76390076 20.11240005
lfingers  90 7.125020027 -90
lthumb  89.89689403 5.08795885 91.16245106
rclavicle  0 -9.442270133e-015 7.951389973e-016
rhumerus  -11.99450016 26.96640015 -76.38079834
rradius  -2.267166111e-031 2.707175994e-031 129.9450073
rwrist  0 -0 -14.27859974
rhand  -7.920061211e-032 -33.2840004 9.303460121
rfingers  -90 -7.125020027 -90
rthumb  -92.93752616 -24.25625642 -97.11982154
rfemur  -20.96279907 26.1298008 -6.973899841
rtibia  -0 0 54.43209839
rfoot  -0 -18.1019001 -9.263569832
rtoes  5.373923086 19.29304026 -105.8922705
lfemur  -13.78339958 2.066519976 -3.164050102
ltibia  -0 0 47.05830002
lfoot  -0 -2.302190065 9.713270187
ltoes  -4.250644065 -19.5611806 -102.515957
115
root  6.817910803 38.60555634 6.483822169 -30.75799561 -74.95999908 31.15698242
lowerback  14.45400047 5.188950062 -2.979589939
upperback  3.605940104 6.224420071 -0.9221510291
thorax  -4.457439899 3.03144002 -0.4229269922
lowerneck  -7.228620052 12.85630035 1.943179965
upperneck  10.25809956 17.91150093 -6.998410225
head  5.083370209 8.450380325 -1.186890006
lclavicle  0 -9.442270133e-015 7.951389973e-016
lhumerus  -34.66650009 -12.18799973 36.67200089
lradius  2.555057816e-031 -2.437318936e-031 136.3509979
lwrist  -7.062250077e-031 -0 12.95540047
lhand  -1.496451383e-031 -27.76390076 20.11240005
lfingers  90 7.125020027 -90
lthumb  89.89689403 5.08795885 91.16245106
rclavicle  0 -9.442270133e-015 7.951389973e-016
rhumerus  -13.08810043 27.2730999 -76.06289673
rradius  -2.224220353e-031 2.742569573e-031 129.0420074
rwrist  7.062250077e-031 1.765562519e-031 -14.27000046
rhand  -7.920061211e-032 -33.2840004 9.303460121
rfingers  -90 -7.125020027 -90
rthumb  -92.93752616 -24.25625642 -97.11982154
rfemur  -20.64509964 27.11310005 -6.59773016
rtibia  -0 0 55.12220001
rfoot  -0 -18.54910088 -10.35070038
rtoes  5.373923086 19.29304026 -105.8922705
lfemur  -13.4939003 1.552489996 -2.22706008
ltibia  -0 0 47.01760101
lfoot  -0 -1.834630013 9.316980362
ltoes  -4.250644065 -19.5611806 -102.515957
116
root  6.850111203 38.32955548 6.609689157 -28.67498779 -74.61299896 28.69500732
lowerback  14.61740017 4.752729893 -3.257649899
upperback  3.600749969 5.608290195 -0.7621660233
thorax  -4.581170082 2.730249882 -0.0009498710278
lowerneck  -7.434279919 13.27050018 1.950749993
upperneck  9.68680954 18.53019905 -7.818880081
head  5.050159931 8.717069626 -1.372570038
lclavicle  0 -9.442270133e-015 7.951389973e-016
lhumerus  -32.20040131 -10.0479002 32.18379974
lradius  2.378951957e-031 -2.609488767e-031 132.3540039
lwrist  -7.062250077e-031 -0 17.77519989
lhand  -1.496451383e-031 -27.76390076 20.11240005
lfingers  90 7.125020027 -90
lthumb  89.89689403 5.08795885 91.16245106
rclavicle  0 -9.442270133e-015 7.951389973e-016
rhumerus  -14.37139988 27.77039909 -75.48280334
rradius  -2.2013108e-031 2.760991634e-031 128.5650024
rwrist  1.412450015e-030 1.765562519e-031 -14.46510029
rhand  -7.920061211e-032 -33.2840004 9.303460121
rfingers  -90 -7.125020027 -90
rthumb  -92.93752616 -24.25625642 -97.11982154
rfemur  -20.2928009 27.96069908 -6.272940159
rtibia  -0 0 55.98180008
rfoot  -0 -19.20890045 -10.33979988
rtoes  5.373923086 19.29304026 -105.8922705
lfemur  -13.37549973 0.9993810058 -1.43572998
ltibia  -0 0 47.13240051
lfoot  -0 -1.611860037 8.690910339
ltoes  -4.250644065 -19.5611806 -102.515957
117
root  6.893666335 38.06044511 6.742333239 -26.10498047 -73.97599792 25.58300781
lowerback  14.95759964 4.312970161 -3.315069914
upperback  3.582770109 5.018610001 -0.5010660291
thorax  -4.795400143 2.44204998 0.3910770118
lowerneck  -7.488430023 13.6001997 1.619840026
upperneck  9.261119843 19.05419922 -8.473079681
head  4.989679813 8.935720444 -1.479580045
lclavicle  0 -9.442270133e-015 7.951389973e-016
lhumerus  -29.4041996 -8.078789711 28.76580048
lradius  2.156597779e-031 -2.796056161e-031 127.6429977
lwrist  -1.412450015e-030 1.765562519e-031 21.85630035
lhand  -1.496451383e-031 -27.76390076 20.11240005
lfingers  90 7.125020027 -90
lthumb  89.89689403 5.08795885 91.16245106
rclavicle  0 -9.442270133e-015 7.951389973e-016
rhumerus  -16.07369995 28.12610054 -74.62020111
rradius  -2.193253639e-031 2.767396342e-031 128.397995
rwrist  1.412450015e-030 -3.531125038e-031 -14.88269997
rhand  -7.920061211e-032 -33.2840004 9.303460121
rfingers  -90 -7.125020027 -90
rthumb  -92.93752616 -24.25625642 -97.11982154
rfemur  -19.72060013 28.62380028 -5.786349773
rtibia  -0 0 56.97460175
rfoot  -0 -20.23469925 -8.327969551
rtoes  5.373923086 19.29304026 -105.8922705
lfemur  -13.36200047 0.1887599975 -0.6801400185
ltibia  -0 0 47.37820053
lfoot  -0 -2.127099991 7.76624012
ltoes  -4.250644065 -19.5611806 -102.515957
